<mxfile host="app.diagrams.net" modified="2023-02-14T17:28:38.301Z" agent="5.0 (Windows NT 10.0; Win64; x64) AppleWebKit/537.36 (KHTML, like Gecko) Chrome/86.0.4240.198 Safari/537.36" etag="AmDsedI9N8V2caprqcMo" version="20.8.20" type="github">
  <diagram name="PÃ¡gina-1" id="LD10V7lSq9T8Y7XWwP9y">
    <mxGraphModel dx="880" dy="476" grid="1" gridSize="10" guides="1" tooltips="1" connect="1" arrows="1" fold="1" page="1" pageScale="1" pageWidth="827" pageHeight="1169" math="0" shadow="0">
      <root>
        <mxCell id="0" />
        <mxCell id="1" parent="0" />
        <mxCell id="zRoMdkS9_1AER4-9lOQv-1" value="TRIAGEM_ATENDIMENTO" style="rounded=0;whiteSpace=wrap;html=1;" vertex="1" parent="1">
          <mxGeometry x="80" y="140" width="160" height="60" as="geometry" />
        </mxCell>
        <mxCell id="zRoMdkS9_1AER4-9lOQv-2" value="&lt;u&gt;cd_triagem_atendimento&lt;/u&gt;" style="ellipse;whiteSpace=wrap;html=1;" vertex="1" parent="1">
          <mxGeometry x="20" y="40" width="150" height="50" as="geometry" />
        </mxCell>
        <mxCell id="zRoMdkS9_1AER4-9lOQv-3" value="ds_senha" style="ellipse;whiteSpace=wrap;html=1;" vertex="1" parent="1">
          <mxGeometry x="210" y="45" width="70" height="40" as="geometry" />
        </mxCell>
        <mxCell id="zRoMdkS9_1AER4-9lOQv-4" value="" style="endArrow=none;html=1;rounded=0;exitX=0.5;exitY=1;exitDx=0;exitDy=0;entryX=0.569;entryY=0;entryDx=0;entryDy=0;entryPerimeter=0;" edge="1" parent="1" source="zRoMdkS9_1AER4-9lOQv-2" target="zRoMdkS9_1AER4-9lOQv-1">
          <mxGeometry width="50" height="50" relative="1" as="geometry">
            <mxPoint x="380" y="170" as="sourcePoint" />
            <mxPoint x="430" y="120" as="targetPoint" />
          </mxGeometry>
        </mxCell>
        <mxCell id="zRoMdkS9_1AER4-9lOQv-5" value="" style="endArrow=none;html=1;rounded=0;exitX=0.75;exitY=0;exitDx=0;exitDy=0;entryX=0.5;entryY=1;entryDx=0;entryDy=0;" edge="1" parent="1" source="zRoMdkS9_1AER4-9lOQv-1" target="zRoMdkS9_1AER4-9lOQv-3">
          <mxGeometry width="50" height="50" relative="1" as="geometry">
            <mxPoint x="380" y="170" as="sourcePoint" />
            <mxPoint x="430" y="120" as="targetPoint" />
          </mxGeometry>
        </mxCell>
        <mxCell id="zRoMdkS9_1AER4-9lOQv-6" value="FICHA_CHAMADO" style="rounded=0;whiteSpace=wrap;html=1;" vertex="1" parent="1">
          <mxGeometry x="420" y="150" width="120" height="60" as="geometry" />
        </mxCell>
        <mxCell id="zRoMdkS9_1AER4-9lOQv-7" value="&lt;u&gt;cd_ficha&lt;/u&gt;" style="ellipse;whiteSpace=wrap;html=1;" vertex="1" parent="1">
          <mxGeometry x="300" y="55" width="80" height="30" as="geometry" />
        </mxCell>
        <mxCell id="zRoMdkS9_1AER4-9lOQv-8" value="" style="endArrow=none;html=1;rounded=0;entryX=0.75;entryY=0.833;entryDx=0;entryDy=0;entryPerimeter=0;exitX=0;exitY=0;exitDx=0;exitDy=0;" edge="1" parent="1" source="zRoMdkS9_1AER4-9lOQv-6" target="zRoMdkS9_1AER4-9lOQv-7">
          <mxGeometry width="50" height="50" relative="1" as="geometry">
            <mxPoint x="380" y="170" as="sourcePoint" />
            <mxPoint x="430" y="120" as="targetPoint" />
          </mxGeometry>
        </mxCell>
        <mxCell id="zRoMdkS9_1AER4-9lOQv-10" value="&lt;u&gt;nr_senha_recepcao&lt;/u&gt;" style="ellipse;whiteSpace=wrap;html=1;" vertex="1" parent="1">
          <mxGeometry x="310" y="5" width="130" height="40" as="geometry" />
        </mxCell>
        <mxCell id="zRoMdkS9_1AER4-9lOQv-11" value="" style="endArrow=none;html=1;rounded=0;entryX=0.5;entryY=1;entryDx=0;entryDy=0;exitX=0.25;exitY=0;exitDx=0;exitDy=0;" edge="1" parent="1" source="zRoMdkS9_1AER4-9lOQv-6" target="zRoMdkS9_1AER4-9lOQv-10">
          <mxGeometry width="50" height="50" relative="1" as="geometry">
            <mxPoint x="380" y="170" as="sourcePoint" />
            <mxPoint x="430" y="120" as="targetPoint" />
          </mxGeometry>
        </mxCell>
        <mxCell id="zRoMdkS9_1AER4-9lOQv-13" value="&lt;u&gt;nr_senha_destino&lt;/u&gt;" style="ellipse;whiteSpace=wrap;html=1;" vertex="1" parent="1">
          <mxGeometry x="400" y="40" width="130" height="40" as="geometry" />
        </mxCell>
        <mxCell id="zRoMdkS9_1AER4-9lOQv-14" value="" style="endArrow=none;html=1;rounded=0;entryX=0.438;entryY=1.025;entryDx=0;entryDy=0;entryPerimeter=0;" edge="1" parent="1" source="zRoMdkS9_1AER4-9lOQv-6" target="zRoMdkS9_1AER4-9lOQv-13">
          <mxGeometry width="50" height="50" relative="1" as="geometry">
            <mxPoint x="380" y="170" as="sourcePoint" />
            <mxPoint x="430" y="120" as="targetPoint" />
          </mxGeometry>
        </mxCell>
        <mxCell id="zRoMdkS9_1AER4-9lOQv-15" value="dh_registro" style="ellipse;whiteSpace=wrap;html=1;" vertex="1" parent="1">
          <mxGeometry x="510" y="5" width="70" height="40" as="geometry" />
        </mxCell>
        <mxCell id="zRoMdkS9_1AER4-9lOQv-16" value="" style="endArrow=none;html=1;rounded=0;entryX=0.5;entryY=1;entryDx=0;entryDy=0;" edge="1" parent="1" source="zRoMdkS9_1AER4-9lOQv-6" target="zRoMdkS9_1AER4-9lOQv-15">
          <mxGeometry width="50" height="50" relative="1" as="geometry">
            <mxPoint x="380" y="170" as="sourcePoint" />
            <mxPoint x="430" y="120" as="targetPoint" />
          </mxGeometry>
        </mxCell>
        <mxCell id="zRoMdkS9_1AER4-9lOQv-17" value="&lt;u&gt;nr cpf&lt;/u&gt;" style="ellipse;whiteSpace=wrap;html=1;" vertex="1" parent="1">
          <mxGeometry x="550" y="45" width="60" height="30" as="geometry" />
        </mxCell>
        <mxCell id="zRoMdkS9_1AER4-9lOQv-18" value="" style="endArrow=none;html=1;rounded=0;entryX=0.346;entryY=1.025;entryDx=0;entryDy=0;entryPerimeter=0;exitX=1;exitY=0;exitDx=0;exitDy=0;" edge="1" parent="1" source="zRoMdkS9_1AER4-9lOQv-6" target="zRoMdkS9_1AER4-9lOQv-17">
          <mxGeometry width="50" height="50" relative="1" as="geometry">
            <mxPoint x="380" y="170" as="sourcePoint" />
            <mxPoint x="430" y="120" as="targetPoint" />
          </mxGeometry>
        </mxCell>
        <mxCell id="zRoMdkS9_1AER4-9lOQv-19" value="nome_paciente" style="ellipse;whiteSpace=wrap;html=1;" vertex="1" parent="1">
          <mxGeometry x="600" y="25" width="100" height="30" as="geometry" />
        </mxCell>
        <mxCell id="zRoMdkS9_1AER4-9lOQv-20" value="" style="endArrow=none;html=1;rounded=0;entryX=0.44;entryY=1.033;entryDx=0;entryDy=0;entryPerimeter=0;exitX=1;exitY=0.25;exitDx=0;exitDy=0;" edge="1" parent="1" source="zRoMdkS9_1AER4-9lOQv-6" target="zRoMdkS9_1AER4-9lOQv-19">
          <mxGeometry width="50" height="50" relative="1" as="geometry">
            <mxPoint x="380" y="170" as="sourcePoint" />
            <mxPoint x="430" y="120" as="targetPoint" />
          </mxGeometry>
        </mxCell>
        <mxCell id="zRoMdkS9_1AER4-9lOQv-21" value="&lt;u&gt;cd_destino&lt;/u&gt;" style="ellipse;whiteSpace=wrap;html=1;" vertex="1" parent="1">
          <mxGeometry x="630" y="70" width="70" height="30" as="geometry" />
        </mxCell>
        <mxCell id="zRoMdkS9_1AER4-9lOQv-22" value="" style="endArrow=none;html=1;rounded=0;entryX=0;entryY=1;entryDx=0;entryDy=0;exitX=1;exitY=0.5;exitDx=0;exitDy=0;" edge="1" parent="1" source="zRoMdkS9_1AER4-9lOQv-6" target="zRoMdkS9_1AER4-9lOQv-21">
          <mxGeometry width="50" height="50" relative="1" as="geometry">
            <mxPoint x="600" y="170" as="sourcePoint" />
            <mxPoint x="650" y="110" as="targetPoint" />
          </mxGeometry>
        </mxCell>
        <mxCell id="zRoMdkS9_1AER4-9lOQv-23" value="&lt;u&gt;cd_login&lt;/u&gt;" style="ellipse;whiteSpace=wrap;html=1;" vertex="1" parent="1">
          <mxGeometry x="710" y="55" width="70" height="30" as="geometry" />
        </mxCell>
        <mxCell id="zRoMdkS9_1AER4-9lOQv-24" value="" style="endArrow=none;html=1;rounded=0;entryX=0;entryY=1;entryDx=0;entryDy=0;exitX=1;exitY=0.75;exitDx=0;exitDy=0;" edge="1" parent="1" source="zRoMdkS9_1AER4-9lOQv-6" target="zRoMdkS9_1AER4-9lOQv-23">
          <mxGeometry width="50" height="50" relative="1" as="geometry">
            <mxPoint x="600" y="170" as="sourcePoint" />
            <mxPoint x="650" y="120" as="targetPoint" />
          </mxGeometry>
        </mxCell>
        <mxCell id="zRoMdkS9_1AER4-9lOQv-25" value="&lt;u&gt;cd_matricula_receptior&lt;/u&gt;" style="ellipse;whiteSpace=wrap;html=1;" vertex="1" parent="1">
          <mxGeometry x="675" y="110" width="140" height="30" as="geometry" />
        </mxCell>
        <mxCell id="zRoMdkS9_1AER4-9lOQv-26" value="" style="endArrow=none;html=1;rounded=0;exitX=0.992;exitY=0.883;exitDx=0;exitDy=0;exitPerimeter=0;" edge="1" parent="1" source="zRoMdkS9_1AER4-9lOQv-6" target="zRoMdkS9_1AER4-9lOQv-25">
          <mxGeometry width="50" height="50" relative="1" as="geometry">
            <mxPoint x="600" y="170" as="sourcePoint" />
            <mxPoint x="650" y="120" as="targetPoint" />
          </mxGeometry>
        </mxCell>
        <mxCell id="zRoMdkS9_1AER4-9lOQv-27" value="dh_chegada_destino" style="ellipse;whiteSpace=wrap;html=1;" vertex="1" parent="1">
          <mxGeometry x="684" y="146" width="130" height="30" as="geometry" />
        </mxCell>
        <mxCell id="zRoMdkS9_1AER4-9lOQv-28" value="" style="endArrow=none;html=1;rounded=0;exitX=1;exitY=1;exitDx=0;exitDy=0;entryX=0.054;entryY=0.733;entryDx=0;entryDy=0;entryPerimeter=0;" edge="1" parent="1" source="zRoMdkS9_1AER4-9lOQv-6" target="zRoMdkS9_1AER4-9lOQv-27">
          <mxGeometry width="50" height="50" relative="1" as="geometry">
            <mxPoint x="600" y="170" as="sourcePoint" />
            <mxPoint x="650" y="120" as="targetPoint" />
          </mxGeometry>
        </mxCell>
      </root>
    </mxGraphModel>
  </diagram>
</mxfile>
